<svg width="40" height="40" viewBox="0 0 40 40" fill="none" xmlns="http://www.w3.org/2000/svg">
<path d="M38.5 20C38.5 30.2173 30.2173 38.5 20 38.5C9.78273 38.5 1.5 30.2173 1.5 20C1.5 9.78273 9.78273 1.5 20 1.5C30.2173 1.5 38.5 9.78273 38.5 20Z" stroke="#FFC80A" stroke-width="3"/>
<path fill-rule="evenodd" clip-rule="evenodd" d="M29.911 20.404C29.861 20.534 29.787 20.656 29.683 20.761L21.731 28.714C21.331 29.113 20.684 29.113 20.285 28.714C19.886 28.314 19.886 27.668 20.285 27.268L26.553 21H12C11.448 21 11 20.552 11 20C11 19.447 11.448 19 12 19H26.555L20.285 12.729C19.886 12.33 19.886 11.682 20.285 11.283C20.684 10.883 21.331 10.883 21.731 11.283L29.683 19.235C29.788 19.341 29.862 19.465 29.912 19.596C29.967 19.72 30 19.855 30 20C30 20.144 29.966 20.28 29.911 20.404V20.404Z" fill="#8F75BE"/>
</svg>
