<svg width="14" height="14" viewBox="0 0 14 14" fill="none" xmlns="http://www.w3.org/2000/svg">
<path fill-rule="evenodd" clip-rule="evenodd" d="M7 14C3.14 14 0 10.86 0 7C0 3.14 3.14 0 7 0C10.86 0 14 3.14 14 7C14 10.86 10.86 14 7 14V14ZM7.00001 1.16699C3.78301 1.16699 1.16701 3.78299 1.16701 6.99999C1.16701 10.217 3.78301 12.833 7.00001 12.833C10.217 12.833 12.833 10.217 12.833 6.99999C12.833 3.78299 10.217 1.16699 7.00001 1.16699V1.16699ZM9.33299 9.91701C9.18399 9.91701 9.03499 9.86001 8.92099 9.74601L6.58799 7.41301V7.41301C6.53399 7.35901 6.49099 7.29401 6.46199 7.22301C6.43199 7.15201 6.41699 7.07601 6.41699 7.00001V2.91701C6.41699 2.59501 6.67799 2.33301 6.99999 2.33301C7.32199 2.33301 7.58299 2.59501 7.58299 2.91701V6.75901L9.74599 8.92101C9.97399 9.14901 9.97399 9.51801 9.74599 9.74601C9.63199 9.86001 9.48299 9.91701 9.33299 9.91701V9.91701Z" fill="#9FA3A7"/>
</svg>
