<svg width="18" height="13" viewBox="0 0 18 13" fill="none" xmlns="http://www.w3.org/2000/svg">
<path fill-rule="evenodd" clip-rule="evenodd" d="M9 0C4.909 0 1.391 2.686 0 6.5C1.391 10.313 4.909 12.999 9 12.999C13.091 12.999 16.609 10.313 18 6.5C16.609 2.686 13.091 0 9 0V0ZM9 10.833C6.709 10.833 4.909 8.92602 4.909 6.50002C4.909 4.07302 6.709 2.16602 9 2.16602C11.291 2.16602 13.091 4.07302 13.091 6.50002C13.091 8.92602 11.291 10.833 9 10.833V10.833ZM8.99998 3.89999C7.60898 3.89999 6.54498 5.02599 6.54498 6.49999C6.54498 7.97299 7.60898 9.09999 8.99998 9.09999C10.391 9.09999 11.455 7.97299 11.455 6.49999C11.455 5.02599 10.391 3.89999 8.99998 3.89999V3.89999Z" fill="#9FA3A7"/>
</svg>
